<svg width="24" height="16" viewBox="0 0 24 16" fill="none" xmlns="http://www.w3.org/2000/svg">
<path d="M12 0C18.627 0 24 6.625 24 8C24 9.375 18.627 16 12 16C5.373 16 0 9.375 0 8C0 6.625 5.373 0 12 0ZM12 3C10.6739 3 9.40215 3.52678 8.46447 4.46447C7.52678 5.40215 7 6.6739 7 8C7 9.3261 7.52678 10.5979 8.46447 11.5355C9.40215 12.4732 10.6739 13 12 13C13.3261 13 14.5979 12.4732 15.5355 11.5355C16.4732 10.5979 17 9.3261 17 8C17 6.6739 16.4732 5.40215 15.5355 4.46447C14.5979 3.52678 13.3261 3 12 3ZM12 5C12.7956 5 13.5587 5.31607 14.1213 5.87868C14.6839 6.4413 15 7.2044 15 8C15 8.7956 14.6839 9.5587 14.1213 10.1213C13.5587 10.6839 12.7956 11 12 11C11.2044 11 10.4413 10.6839 9.87868 10.1213C9.31607 9.5587 9 8.7956 9 8C9 7.2044 9.31607 6.4413 9.87868 5.87868C10.4413 5.31607 11.2044 5 12 5Z" fill="#CBCBCB"/>
</svg>
