<svg width="24" height="20" viewBox="0 0 24 20" fill="none" xmlns="http://www.w3.org/2000/svg">
<path d="M1.393 1.414L2.808 0L21.192 18.384L19.778 19.799L16.282 16.302C14.952 16.849 13.509 17.192 12 17.192C5.373 17.192 0 10.567 0 9.192C0 8.44 1.607 6.118 4.147 4.168L1.393 1.414ZM12 1.192C18.627 1.192 24 7.817 24 9.192C24 9.944 22.393 12.266 19.853 14.216L16.655 11.02C17.0113 10.114 17.0953 9.1236 16.8968 8.1705C16.6983 7.2174 16.2258 6.343 15.5374 5.65459C14.849 4.96617 13.9746 4.49371 13.0215 4.29518C12.0684 4.09665 11.078 4.1807 10.172 4.537L7.718 2.082C9.048 1.535 10.49 1.192 12 1.192ZM7.344 7.365C6.9877 8.271 6.90365 9.2614 7.10218 10.2145C7.30071 11.1676 7.77317 12.042 8.46159 12.7304C9.15 13.4188 10.0244 13.8913 10.9775 14.0898C11.9306 14.2883 12.921 14.2043 13.827 13.848L12.166 12.188L12 12.192C11.2044 12.192 10.4413 11.8759 9.87868 11.3133C9.31607 10.7507 9 9.9876 9 9.192L9.005 9.026L7.345 7.366L7.344 7.365ZM12 6.192C12.7956 6.192 13.5587 6.50807 14.1213 7.07068C14.6839 7.6333 15 8.3963 15 9.192L14.995 9.358L11.833 6.197L12 6.192Z" fill="#CBCBCB"/>
</svg>
