<svg width="20" height="18" viewBox="0 0 20 18" fill="none" xmlns="http://www.w3.org/2000/svg">
<path d="M15.4444 8.1001H4.55556C3.69645 8.1001 3 8.83272 3 9.73646V15.4637C3 16.3675 3.69645 17.1001 4.55556 17.1001H15.4444C16.3036 17.1001 17 16.3675 17 15.4637V9.73646C17 8.83272 16.3036 8.1001 15.4444 8.1001Z" stroke="#666360" stroke-width="1.5" stroke-linecap="round" stroke-linejoin="round"/>
<path d="M6 8.0999V4.8999C6 3.83904 6.42143 2.82162 7.17157 2.07148C7.92172 1.32133 8.93913 0.899902 10 0.899902C11.0609 0.899902 12.0783 1.32133 12.8284 2.07148C13.5786 2.82162 14 3.83904 14 4.8999V8.0999" stroke="#666360" stroke-width="1.5" stroke-linecap="round" stroke-linejoin="round"/>
</svg>
