<svg width="284" height="95" viewBox="0 0 284 95" fill="none" xmlns="http://www.w3.org/2000/svg">
<path d="M8.64 72C7.65867 72 6.80533 71.6373 6.08 70.912C5.39733 70.1867 5.056 69.3333 5.056 68.352V28.928C5.056 27.9467 5.39733 27.0933 6.08 26.368C6.80533 25.6427 7.65867 25.28 8.64 25.28H10.368C11.3493 25.28 12.2027 25.6427 12.928 26.368C13.6533 27.0933 14.016 27.9467 14.016 28.928V43.456C14.016 43.7973 14.1867 43.968 14.528 43.968H30.528C30.8693 43.968 31.04 43.7973 31.04 43.456V28.928C31.04 27.9467 31.4027 27.0933 32.128 26.368C32.8533 25.6427 33.7067 25.28 34.688 25.28H36.416C37.3973 25.28 38.2293 25.6427 38.912 26.368C39.6373 27.0933 40 27.9467 40 28.928V68.352C40 69.3333 39.6373 70.1867 38.912 70.912C38.2293 71.6373 37.3973 72 36.416 72H34.688C33.7067 72 32.8533 71.6373 32.128 70.912C31.4027 70.1867 31.04 69.3333 31.04 68.352V51.392C31.04 51.008 30.8693 50.816 30.528 50.816H14.528C14.1867 50.816 14.016 51.008 14.016 51.392V68.352C14.016 69.3333 13.6533 70.1867 12.928 70.912C12.2027 71.6373 11.3493 72 10.368 72H8.64ZM53.7665 72C52.7852 72 51.9318 71.6373 51.2065 70.912C50.4812 70.1867 50.1185 69.3333 50.1185 68.352V28.928C50.1185 27.9467 50.4812 27.0933 51.2065 26.368C51.9318 25.6427 52.7852 25.28 53.7665 25.28H75.5265C76.5078 25.28 77.3612 25.6427 78.0865 26.368C78.8118 27.0933 79.1745 27.9467 79.1745 28.928C79.1745 29.9093 78.8118 30.7627 78.0865 31.488C77.3612 32.1707 76.5078 32.512 75.5265 32.512H59.6545C59.2705 32.512 59.0785 32.704 59.0785 33.088V43.392C59.0785 43.776 59.2705 43.968 59.6545 43.968H74.4385C75.4198 43.968 76.2305 44.3093 76.8705 44.992C77.5532 45.6747 77.8945 46.4853 77.8945 47.424C77.8945 48.3627 77.5532 49.1733 76.8705 49.856C76.2305 50.496 75.4198 50.816 74.4385 50.816H59.6545C59.2705 50.816 59.0785 51.008 59.0785 51.392V64.192C59.0785 64.576 59.2705 64.768 59.6545 64.768H75.5265C76.5078 64.768 77.3612 65.1307 78.0865 65.856C78.8118 66.5387 79.1745 67.3707 79.1745 68.352C79.1745 69.3333 78.8118 70.1867 78.0865 70.912C77.3612 71.6373 76.5078 72 75.5265 72H53.7665ZM97.5145 32.704V64.576C97.5145 64.8747 97.6852 65.0667 98.0265 65.152C99.3918 65.3653 100.672 65.472 101.867 65.472C106.859 65.472 110.528 64.128 112.875 61.44C115.221 58.7093 116.395 54.2293 116.395 48C116.395 42.4107 115.2 38.3147 112.811 35.712C110.421 33.1093 106.773 31.808 101.867 31.808C100.672 31.808 99.3918 31.9147 98.0265 32.128C97.6852 32.2133 97.5145 32.4053 97.5145 32.704ZM92.2665 72.192C91.1998 72.064 90.3252 71.616 89.6425 70.848C88.9598 70.0373 88.6185 69.0987 88.6185 68.032V29.248C88.6185 28.1813 88.9598 27.264 89.6425 26.496C90.3252 25.6853 91.1998 25.216 92.2665 25.088C94.9972 24.7893 98.0478 24.64 101.419 24.64C109.013 24.64 114.816 26.624 118.826 30.592C122.88 34.56 124.907 40.3627 124.907 48C124.907 56.192 122.88 62.3573 118.826 66.496C114.816 70.592 109.013 72.64 101.419 72.64C98.0478 72.64 94.9972 72.4907 92.2665 72.192ZM131.604 32.704C130.623 32.704 129.769 32.3627 129.044 31.68C128.319 30.9547 127.956 30.1013 127.956 29.12V28.928C127.956 27.9467 128.319 27.0933 129.044 26.368C129.769 25.6427 130.623 25.28 131.604 25.28H158.868C159.849 25.28 160.703 25.6427 161.428 26.368C162.153 27.0933 162.516 27.9467 162.516 28.928V29.12C162.516 30.1013 162.153 30.9547 161.428 31.68C160.703 32.3627 159.849 32.704 158.868 32.704H150.292C149.951 32.704 149.78 32.896 149.78 33.28V68.352C149.78 69.3333 149.417 70.1867 148.692 70.912C147.967 71.6373 147.113 72 146.132 72H144.34C143.359 72 142.505 71.6373 141.78 70.912C141.055 70.1867 140.692 69.3333 140.692 68.352V33.28C140.692 32.896 140.521 32.704 140.18 32.704H131.604Z" fill="#C7EDA0"/>
<path d="M174.352 59C173.861 59 173.435 58.8187 173.072 58.456C172.709 58.0933 172.528 57.6667 172.528 57.176V37.464C172.528 36.9733 172.709 36.5467 173.072 36.184C173.435 35.8213 173.861 35.64 174.352 35.64H175.152C175.707 35.64 176.219 35.7893 176.688 36.088C177.157 36.3867 177.499 36.7813 177.712 37.272L183.312 49.368C183.312 49.3893 183.323 49.4 183.344 49.4C183.365 49.4 183.376 49.3893 183.376 49.368L188.976 37.272C189.189 36.7813 189.531 36.3867 190 36.088C190.469 35.7893 190.981 35.64 191.536 35.64H192.464C192.955 35.64 193.381 35.8213 193.744 36.184C194.107 36.5467 194.288 36.9733 194.288 37.464V57.176C194.288 57.6667 194.107 58.0933 193.744 58.456C193.381 58.8187 192.955 59 192.464 59H191.76C191.269 59 190.843 58.8187 190.48 58.456C190.117 58.0933 189.936 57.6667 189.936 57.176V43.256C189.936 43.2347 189.925 43.224 189.904 43.224C189.883 43.224 189.872 43.2347 189.872 43.256L186.032 51.48C185.797 51.9707 185.435 52.376 184.944 52.696C184.475 52.9947 183.973 53.144 183.44 53.144H183.248C182.715 53.144 182.203 52.9947 181.712 52.696C181.243 52.376 180.891 51.9707 180.656 51.48L176.816 43.256C176.816 43.2347 176.805 43.224 176.784 43.224C176.763 43.224 176.752 43.2347 176.752 43.256V57.176C176.752 57.6667 176.571 58.0933 176.208 58.456C175.845 58.8187 175.419 59 174.928 59H174.352ZM208.813 46.488C208.194 45.592 207.255 45.144 205.997 45.144C204.738 45.144 203.789 45.592 203.149 46.488C202.53 47.3627 202.221 48.76 202.221 50.68C202.221 52.6 202.53 54.008 203.149 54.904C203.789 55.7787 204.738 56.216 205.997 56.216C207.255 56.216 208.194 55.7787 208.813 54.904C209.453 54.008 209.773 52.6 209.773 50.68C209.773 48.76 209.453 47.3627 208.813 46.488ZM211.949 57.08C210.541 58.5733 208.557 59.32 205.997 59.32C203.437 59.32 201.442 58.5733 200.013 57.08C198.605 55.5653 197.901 53.432 197.901 50.68C197.901 47.928 198.605 45.8053 200.013 44.312C201.442 42.7973 203.437 42.04 205.997 42.04C208.557 42.04 210.541 42.7973 211.949 44.312C213.378 45.8053 214.093 47.928 214.093 50.68C214.093 53.432 213.378 55.5653 211.949 57.08ZM208.237 34.584H209.933C210.295 34.584 210.541 34.744 210.669 35.064C210.818 35.384 210.775 35.672 210.541 35.928L208.045 38.776C207.255 39.672 206.253 40.12 205.036 40.12H204.812C204.407 40.12 204.109 39.9493 203.917 39.608C203.725 39.2667 203.735 38.9253 203.949 38.584L205.485 36.12C206.103 35.096 207.021 34.584 208.237 34.584ZM220.66 57.272L216.404 44.088C216.254 43.6613 216.308 43.2667 216.564 42.904C216.841 42.5413 217.204 42.36 217.652 42.36H218.612C219.145 42.36 219.625 42.5307 220.052 42.872C220.478 43.192 220.756 43.608 220.884 44.12L224.084 56.504C224.084 56.5253 224.094 56.536 224.116 56.536C224.137 56.536 224.148 56.5253 224.148 56.504L227.348 44.12C227.476 43.608 227.753 43.192 228.18 42.872C228.606 42.5307 229.086 42.36 229.62 42.36H230.452C230.9 42.36 231.252 42.5413 231.508 42.904C231.785 43.2667 231.849 43.6613 231.7 44.088L227.444 57.272C227.294 57.784 226.996 58.2 226.548 58.52C226.121 58.84 225.63 59 225.076 59H223.028C222.494 59 222.004 58.84 221.556 58.52C221.129 58.2 220.83 57.784 220.66 57.272ZM240.992 45.016C239.904 45.016 239.061 45.3253 238.464 45.944C237.888 46.5413 237.525 47.512 237.376 48.856C237.376 49.0267 237.461 49.112 237.632 49.112H243.904C244.075 49.112 244.16 49.0267 244.16 48.856C244.075 46.296 243.019 45.016 240.992 45.016ZM241.792 59.32C238.997 59.32 236.843 58.5947 235.328 57.144C233.835 55.672 233.088 53.5173 233.088 50.68C233.088 47.864 233.76 45.72 235.104 44.248C236.448 42.776 238.389 42.04 240.928 42.04C245.664 42.04 248.096 44.728 248.224 50.104C248.245 50.616 248.064 51.0427 247.68 51.384C247.296 51.7253 246.848 51.896 246.336 51.896H237.6C237.408 51.896 237.333 51.992 237.376 52.184C237.525 53.6133 237.995 54.6587 238.784 55.32C239.595 55.96 240.768 56.28 242.304 56.28C243.264 56.28 244.331 56.12 245.504 55.8C245.888 55.6933 246.24 55.7573 246.56 55.992C246.901 56.2267 247.072 56.5467 247.072 56.952C247.072 57.4427 246.923 57.88 246.624 58.264C246.347 58.6267 245.973 58.8507 245.504 58.936C244.309 59.192 243.072 59.32 241.792 59.32ZM254.461 59C253.97 59 253.543 58.8187 253.181 58.456C252.818 58.0933 252.637 57.6667 252.637 57.176V44.184C252.637 43.6933 252.818 43.2667 253.181 42.904C253.543 42.5413 253.97 42.36 254.461 42.36H255.293C255.783 42.36 256.21 42.5413 256.573 42.904C256.935 43.2667 257.117 43.6933 257.117 44.184V57.176C257.117 57.6667 256.935 58.0933 256.573 58.456C256.21 58.8187 255.783 59 255.293 59H254.461ZM254.461 38.84C253.97 38.84 253.543 38.6587 253.181 38.296C252.818 37.9333 252.637 37.5067 252.637 37.016V36.824C252.637 36.3333 252.818 35.9067 253.181 35.544C253.543 35.1813 253.97 35 254.461 35H255.293C255.783 35 256.21 35.1813 256.573 35.544C256.935 35.9067 257.117 36.3333 257.117 36.824V37.016C257.117 37.5067 256.935 37.9333 256.573 38.296C256.21 38.6587 255.783 38.84 255.293 38.84H254.461ZM268.217 52.28C265.977 51.7893 264.377 51.1173 263.417 50.264C262.479 49.4107 262.009 48.3013 262.009 46.936C262.009 45.4 262.575 44.2053 263.705 43.352C264.857 42.4773 266.553 42.04 268.793 42.04C270.201 42.04 271.599 42.168 272.985 42.424C273.455 42.5093 273.828 42.744 274.105 43.128C274.404 43.4907 274.553 43.9173 274.553 44.408C274.553 44.8133 274.393 45.144 274.073 45.4C273.753 45.6347 273.391 45.6987 272.985 45.592C271.791 45.2933 270.532 45.144 269.209 45.144C267.289 45.144 266.329 45.6773 266.329 46.744C266.329 47.256 266.511 47.6827 266.873 48.024C267.236 48.3653 267.855 48.632 268.729 48.824C271.183 49.3147 272.857 49.976 273.753 50.808C274.671 51.64 275.129 52.856 275.129 54.456C275.129 55.992 274.553 57.1867 273.401 58.04C272.249 58.8933 270.575 59.32 268.377 59.32C266.948 59.32 265.487 59.1493 263.993 58.808C263.524 58.7013 263.14 58.456 262.841 58.072C262.543 57.6667 262.393 57.208 262.393 56.696C262.393 56.2907 262.553 55.9813 262.873 55.768C263.215 55.5547 263.577 55.5013 263.961 55.608C265.348 55.992 266.66 56.184 267.897 56.184C269.839 56.184 270.809 55.608 270.809 54.456C270.809 53.9013 270.617 53.464 270.233 53.144C269.871 52.824 269.199 52.536 268.217 52.28Z" fill="#B6E884"/>
<rect x="166" y="68" width="118" height="4" rx="2" fill="#BCEC8C"/>
<rect x="166" y="26" width="118" height="4" rx="2" fill="#BCEC8C"/>
<rect x="280" y="72" width="46" height="4" rx="2" transform="rotate(-90 280 72)" fill="#BCEC8C"/>
<rect x="164" y="72" width="46" height="4" rx="2" transform="rotate(-90 164 72)" fill="#BCEC8C"/>
</svg>
