<svg width="293" height="99" viewBox="0 0 293 99" fill="none" xmlns="http://www.w3.org/2000/svg">
<path d="M8.91389 74.3326C7.90146 74.3326 7.02107 73.9582 6.27276 73.2094C5.56846 72.4606 5.21631 71.5795 5.21631 70.5664V29.8652C5.21631 28.8521 5.56846 27.971 6.27276 27.2222C7.02107 26.4734 7.90146 26.099 8.91389 26.099H10.6966C11.709 26.099 12.5895 26.4734 13.3378 27.2222C14.0861 27.971 14.4603 28.8521 14.4603 29.8652V44.8638C14.4603 45.2162 14.6364 45.3924 14.9885 45.3924H31.4955C31.8476 45.3924 32.0237 45.2162 32.0237 44.8638V29.8652C32.0237 28.8521 32.3979 27.971 33.1462 27.2222C33.8945 26.4734 34.775 26.099 35.7873 26.099H37.5701C38.5825 26.099 39.4409 26.4734 40.1452 27.2222C40.8935 27.971 41.2677 28.8521 41.2677 29.8652V70.5664C41.2677 71.5795 40.8935 72.4606 40.1452 73.2094C39.4409 73.9582 38.5825 74.3326 37.5701 74.3326H35.7873C34.775 74.3326 33.8945 73.9582 33.1462 73.2094C32.3979 72.4606 32.0237 71.5795 32.0237 70.5664V53.057C32.0237 52.6605 31.8476 52.4623 31.4955 52.4623H14.9885C14.6364 52.4623 14.4603 52.6605 14.4603 53.057V70.5664C14.4603 71.5795 14.0861 72.4606 13.3378 73.2094C12.5895 73.9582 11.709 74.3326 10.6966 74.3326H8.91389ZM55.4704 74.3326C54.458 74.3326 53.5776 73.9582 52.8293 73.2094C52.081 72.4606 51.7068 71.5795 51.7068 70.5664V29.8652C51.7068 28.8521 52.081 27.971 52.8293 27.2222C53.5776 26.4734 54.458 26.099 55.4704 26.099H77.92C78.9324 26.099 79.8129 26.4734 80.5612 27.2222C81.3094 27.971 81.6836 28.8521 81.6836 29.8652C81.6836 30.8783 81.3094 31.7593 80.5612 32.5081C79.8129 33.2129 78.9324 33.5653 77.92 33.5653H61.545C61.1489 33.5653 60.9508 33.7635 60.9508 34.1599V44.7978C60.9508 45.1942 61.1489 45.3924 61.545 45.3924H76.7975C77.8099 45.3924 78.6463 45.7448 79.3066 46.4496C80.011 47.1544 80.3631 47.9913 80.3631 48.9604C80.3631 49.9295 80.011 50.7664 79.3066 51.4712C78.6463 52.1319 77.8099 52.4623 76.7975 52.4623H61.545C61.1489 52.4623 60.9508 52.6605 60.9508 53.057V66.2717C60.9508 66.6681 61.1489 66.8663 61.545 66.8663H77.92C78.9324 66.8663 79.8129 67.2408 80.5612 67.9896C81.3094 68.6944 81.6836 69.5534 81.6836 70.5664C81.6836 71.5795 81.3094 72.4606 80.5612 73.2094C79.8129 73.9582 78.9324 74.3326 77.92 74.3326H55.4704ZM100.605 33.7635V66.6681C100.605 66.9765 100.781 67.1747 101.133 67.2628C102.542 67.483 103.862 67.5931 105.095 67.5931C110.245 67.5931 114.031 66.2056 116.452 63.4305C118.872 60.6113 120.084 55.9862 120.084 49.5551C120.084 43.7847 118.851 39.556 116.386 36.869C113.92 34.1819 110.157 32.8385 105.095 32.8385C103.862 32.8385 102.542 32.9486 101.133 33.1688C100.781 33.2569 100.605 33.4551 100.605 33.7635ZM95.1905 74.5309C94.09 74.3987 93.1877 73.9362 92.4834 73.1433C91.779 72.3064 91.4269 71.3373 91.4269 70.2361V30.1955C91.4269 29.0943 91.779 28.1472 92.4834 27.3544C93.1877 26.5174 94.09 26.0329 95.1905 25.9007C98.0078 25.5924 101.155 25.4382 104.633 25.4382C112.468 25.4382 118.455 27.4865 122.592 31.5831C126.774 35.6796 128.865 41.6703 128.865 49.5551C128.865 58.0125 126.774 64.3775 122.592 68.6503C118.455 72.879 112.468 74.9934 104.633 74.9934C101.155 74.9934 98.0078 74.8392 95.1905 74.5309ZM135.775 33.7635C134.763 33.7635 133.881 33.4111 133.134 32.7063C132.386 31.9575 132.011 31.0765 132.011 30.0634V29.8652C132.011 28.8521 132.386 27.971 133.134 27.2222C133.881 26.4734 134.763 26.099 135.775 26.099H163.903C164.915 26.099 165.796 26.4734 166.544 27.2222C167.292 27.971 167.666 28.8521 167.666 29.8652V30.0634C167.666 31.0765 167.292 31.9575 166.544 32.7063C165.796 33.4111 164.915 33.7635 163.903 33.7635H155.055C154.703 33.7635 154.527 33.9617 154.527 34.3582V70.5664C154.527 71.5795 154.152 72.4606 153.404 73.2094C152.656 73.9582 151.775 74.3326 150.763 74.3326H148.914C147.902 74.3326 147.021 73.9582 146.273 73.2094C145.525 72.4606 145.151 71.5795 145.151 70.5664V34.3582C145.151 33.9617 144.974 33.7635 144.622 33.7635H135.775Z" fill="#C6C6C6"/>
<path d="M179.877 60.9116C179.371 60.9116 178.931 60.7245 178.557 60.35C178.182 59.9756 177.995 59.5351 177.995 59.0285V38.6779C177.995 38.1713 178.182 37.7309 178.557 37.3564C178.931 36.982 179.371 36.7948 179.877 36.7948H180.703C181.275 36.7948 181.803 36.9489 182.287 37.2573C182.771 37.5657 183.124 37.9731 183.344 38.4797L189.121 50.9676C189.121 50.9896 189.133 51.0006 189.154 51.0006C189.176 51.0006 189.187 50.9896 189.187 50.9676L194.965 38.4797C195.184 37.9731 195.537 37.5657 196.021 37.2573C196.505 36.9489 197.033 36.7948 197.606 36.7948H198.563C199.07 36.7948 199.509 36.982 199.884 37.3564C200.258 37.7309 200.445 38.1713 200.445 38.6779V59.0285C200.445 59.5351 200.258 59.9756 199.884 60.35C199.509 60.7245 199.07 60.9116 198.563 60.9116H197.837C197.33 60.9116 196.891 60.7245 196.516 60.35C196.142 59.9756 195.955 59.5351 195.955 59.0285V44.6576C195.955 44.6356 195.944 44.6245 195.922 44.6245C195.9 44.6245 195.889 44.6356 195.889 44.6576L191.927 53.148C191.685 53.6546 191.312 54.073 190.805 54.4034C190.321 54.7118 189.803 54.8659 189.253 54.8659H189.055C188.505 54.8659 187.977 54.7118 187.471 54.4034C186.987 54.073 186.624 53.6546 186.381 53.148L182.419 44.6576C182.419 44.6356 182.408 44.6245 182.386 44.6245C182.365 44.6245 182.353 44.6356 182.353 44.6576V59.0285C182.353 59.5351 182.167 59.9756 181.792 60.35C181.418 60.7245 180.978 60.9116 180.472 60.9116H179.877ZM215.43 47.9943C214.792 47.0692 213.823 46.6067 212.525 46.6067C211.226 46.6067 210.247 47.0692 209.587 47.9943C208.948 48.8973 208.629 50.3399 208.629 52.3221C208.629 54.3043 208.948 55.7579 209.587 56.6829C210.247 57.586 211.226 58.0374 212.525 58.0374C213.823 58.0374 214.792 57.586 215.43 56.6829C216.091 55.7579 216.421 54.3043 216.421 52.3221C216.421 50.3399 216.091 48.8973 215.43 47.9943ZM218.666 58.9294C217.213 60.4711 215.166 61.242 212.525 61.242C209.884 61.242 207.826 60.4711 206.351 58.9294C204.899 57.3657 204.173 55.1632 204.173 52.3221C204.173 49.4809 204.899 47.2894 206.351 45.7478C207.826 44.184 209.884 43.4022 212.525 43.4022C215.166 43.4022 217.213 44.184 218.666 45.7478C220.14 47.2894 220.878 49.4809 220.878 52.3221C220.878 55.1632 220.14 57.3657 218.666 58.9294ZM214.836 35.7046H216.586C216.959 35.7046 217.213 35.8698 217.345 36.2001C217.499 36.5305 217.455 36.8278 217.213 37.0921L214.638 40.0324C213.823 40.9574 212.789 41.42 211.534 41.42H211.303C210.885 41.42 210.577 41.2437 210.379 40.8914C210.181 40.539 210.191 40.1865 210.412 39.8342L211.997 37.2904C212.634 36.2332 213.582 35.7046 214.836 35.7046ZM227.653 59.1277L223.262 45.5165C223.107 45.076 223.163 44.6686 223.427 44.2941C223.713 43.9197 224.087 43.7325 224.549 43.7325H225.54C226.09 43.7325 226.585 43.9088 227.026 44.2611C227.465 44.5915 227.752 45.021 227.884 45.5495L231.185 58.3348C231.185 58.3568 231.196 58.3678 231.218 58.3678C231.24 58.3678 231.251 58.3568 231.251 58.3348L234.553 45.5495C234.685 45.021 234.971 44.5915 235.411 44.2611C235.851 43.9088 236.346 43.7325 236.897 43.7325H237.755C238.217 43.7325 238.58 43.9197 238.845 44.2941C239.13 44.6686 239.196 45.076 239.043 45.5165L234.652 59.1277C234.497 59.6562 234.19 60.0857 233.727 60.4161C233.287 60.7465 232.78 60.9116 232.209 60.9116H230.096C229.545 60.9116 229.039 60.7465 228.577 60.4161C228.137 60.0857 227.828 59.6562 227.653 59.1277ZM248.629 46.4746C247.507 46.4746 246.637 46.7939 246.021 47.4326C245.427 48.0493 245.052 49.0514 244.899 50.439C244.899 50.6152 244.986 50.7033 245.163 50.7033H251.633C251.81 50.7033 251.898 50.6152 251.898 50.439C251.81 47.796 250.72 46.4746 248.629 46.4746ZM249.454 61.242C246.571 61.242 244.349 60.4932 242.786 58.9955C241.245 57.4758 240.475 55.2513 240.475 52.3221C240.475 49.4149 241.168 47.2014 242.555 45.6817C243.941 44.162 245.944 43.4022 248.563 43.4022C253.449 43.4022 255.958 46.1772 256.09 51.7274C256.112 52.256 255.925 52.6965 255.529 53.0489C255.133 53.4013 254.671 53.5775 254.142 53.5775H245.13C244.932 53.5775 244.854 53.6766 244.899 53.8748C245.052 55.3504 245.537 56.4297 246.351 57.1124C247.188 57.7732 248.398 58.1035 249.983 58.1035C250.973 58.1035 252.074 57.9383 253.284 57.608C253.68 57.4978 254.043 57.5639 254.374 57.8062C254.725 58.0485 254.902 58.3789 254.902 58.7973C254.902 59.3039 254.748 59.7554 254.44 60.1518C254.154 60.5263 253.768 60.7575 253.284 60.8456C252.051 61.1099 250.775 61.242 249.454 61.242ZM262.525 60.9116C262.018 60.9116 261.578 60.7245 261.204 60.35C260.83 59.9756 260.643 59.5351 260.643 59.0285V45.6156C260.643 45.109 260.83 44.6686 261.204 44.2941C261.578 43.9197 262.018 43.7325 262.525 43.7325H263.383C263.889 43.7325 264.329 43.9197 264.704 44.2941C265.077 44.6686 265.265 45.109 265.265 45.6156V59.0285C265.265 59.5351 265.077 59.9756 264.704 60.35C264.329 60.7245 263.889 60.9116 263.383 60.9116H262.525ZM262.525 40.0985C262.018 40.0985 261.578 39.9113 261.204 39.5369C260.83 39.1624 260.643 38.722 260.643 38.2154V38.0172C260.643 37.5106 260.83 37.0701 261.204 36.6957C261.578 36.3212 262.018 36.1341 262.525 36.1341H263.383C263.889 36.1341 264.329 36.3212 264.704 36.6957C265.077 37.0701 265.265 37.5106 265.265 38.0172V38.2154C265.265 38.722 265.077 39.1624 264.704 39.5369C264.329 39.9113 263.889 40.0985 263.383 40.0985H262.525ZM276.717 53.9739C274.406 53.4673 272.755 52.7736 271.765 51.8926C270.797 51.0117 270.312 49.8663 270.312 48.4568C270.312 46.871 270.896 45.6376 272.062 44.7567C273.25 43.8536 275 43.4022 277.311 43.4022C278.764 43.4022 280.206 43.5343 281.636 43.7986C282.121 43.8867 282.506 44.129 282.791 44.5254C283.1 44.8999 283.254 45.3403 283.254 45.8469C283.254 46.2653 283.089 46.6067 282.758 46.871C282.428 47.1133 282.055 47.1794 281.636 47.0692C280.404 46.7609 279.105 46.6067 277.74 46.6067C275.759 46.6067 274.769 47.1573 274.769 48.2586C274.769 48.7872 274.957 49.2277 275.33 49.58C275.705 49.9324 276.343 50.2077 277.245 50.406C279.777 50.9126 281.504 51.5953 282.428 52.4542C283.375 53.3132 283.848 54.5686 283.848 56.2204C283.848 57.8062 283.254 59.0396 282.065 59.9205C280.877 60.8015 279.15 61.242 276.882 61.242C275.408 61.242 273.9 61.0658 272.359 60.7134C271.875 60.6033 271.479 60.35 271.171 59.9536C270.863 59.5351 270.708 59.0616 270.708 58.533C270.708 58.1146 270.873 57.7951 271.204 57.5749C271.556 57.3547 271.93 57.2996 272.326 57.4097C273.757 57.8062 275.111 58.0044 276.387 58.0044C278.39 58.0044 279.391 57.4097 279.391 56.2204C279.391 55.6478 279.193 55.1963 278.797 54.8659C278.423 54.5355 277.73 54.2382 276.717 53.9739Z" fill="#D1D1D1"/>
<path d="M290.937 70.2031H173.324C172.184 70.2031 171.26 71.1276 171.26 72.2679C171.26 73.4083 172.184 74.3327 173.324 74.3327H290.937C292.076 74.3327 293 73.4083 293 72.2679C293 71.1276 292.076 70.2031 290.937 70.2031Z" fill="#D7D7D7"/>
<path d="M290.937 26.8423H173.324C172.184 26.8423 171.26 27.7667 171.26 28.9071C171.26 30.0474 172.184 30.9719 173.324 30.9719H290.937C292.076 30.9719 293 30.0474 293 28.9071C293 27.7667 292.076 26.8423 290.937 26.8423Z" fill="#D7D7D7"/>
<path d="M288.873 28.9072V72.268C288.873 73.4083 289.797 74.3328 290.937 74.3328C292.076 74.3328 293 73.4083 293 72.268V28.9072C293 27.7669 292.076 26.8424 290.937 26.8424C289.797 26.8424 288.873 27.7669 288.873 28.9072Z" fill="#D7D7D7"/>
<path d="M169.197 28.9072V72.268C169.197 73.4083 170.121 74.3328 171.261 74.3328C172.4 74.3328 173.324 73.4083 173.324 72.268V28.9072C173.324 27.7669 172.4 26.8424 171.261 26.8424C170.121 26.8424 169.197 27.7669 169.197 28.9072Z" fill="#D7D7D7"/>
</svg>
